/* XPM */
static char * bullet_xpm[] = {
"12 12 7 1",
" 	c None",
".	c #808080",
"+	c #7F7F7F",
"@	c #000000",
"#	c #797979",
"$	c #131313",
"%	c #787878",
"            ",
"    .+      ",
"    .@+     ",
"     .@+    ",
"      #@+   ",
"       $@+  ",
"       $@+  ",
"      %@+   ",
"     .@+    ",
"    .@+     ",
"    .+      ",
"            "};
