/* XPM */
static char * bullet_active_xpm[] = {
"6 10 19 1",
" 	c None",
".	c #CEDEF2",
"+	c #CFDFF2",
"@	c #CEDEF1",
"#	c #FFFFFF",
"$	c #CDDDF1",
"%	c #CDDDF2",
"&	c #CFDEF2",
"*	c #F7FAFD",
"=	c #CCDCF1",
"-	c #F7F9FD",
";	c #C9DAEF",
">	c #CBDBEF",
",	c #C8D9EF",
"'	c #C6D8EE",
")	c #C7D8EE",
"!	c #C6D7ED",
"~	c #C5D7ED",
"{	c #C5D7EE",
".+    ",
"@#.   ",
" $#%  ",
"  &#$ ",
"   *#=",
"   -#;",
"  >#, ",
" '#)  ",
"!#'   ",
"~{    "};
