/* XPM */
static char * label_focus_xpm[] = {
"1 12 13 1",
" 	c None",
".	c #94B6E0",
"+	c #93B5DF",
"@	c #91B4DF",
"#	c #90B3DE",
"$	c #8EB1DD",
"%	c #8BAFDB",
"&	c #86ABD9",
"*	c #85AAD8",
"=	c #84A9D7",
"-	c #82A8D6",
";	c #81A7D5",
">	c #80A6D5",
".",
"+",
"@",
"#",
"$",
"%",
"&",
"*",
"=",
"-",
";",
">"};
