/* XPM */
static char * maximize_pressed_xpm[] = {
"12 12 4 1",
" 	c None",
".	c #49678B",
"+	c #7AA1D2",
"@	c #F4F5F6",
"............",
".++++++++++.",
".++++++++++.",
".++@@@@@@++.",
".++@@@@@@++.",
".++@++++@++.",
".++@++++@++.",
".++@++++@++.",
".++@@@@@@++.",
".++++++++++.",
".++++++++++.",
"............"};
