/* XPM */
static char * menu_hilite_xpm[] = {
"1 17 17 1",
" 	c None",
".	c #4B6E99",
"+	c #A6C4E8",
"@	c #A4C2E7",
"#	c #A2C0E6",
"$	c #A0BFE5",
"%	c #9EBDE5",
"&	c #9CBCE4",
"*	c #9ABAE3",
"=	c #96B7E1",
"-	c #91B3DE",
";	c #8FB2DD",
">	c #8DB0DC",
",	c #8BAFDB",
"'	c #89ADDA",
")	c #87ACD9",
"!	c #85AAD8",
".",
"+",
"@",
"#",
"$",
"%",
"&",
"*",
"=",
"-",
";",
">",
",",
"'",
")",
"!",
"."};
