/* XPM */
static char * selected_xpm[] = {
"13 13 33 1",
" 	c None",
".	c #797979",
"+	c #FFFFFF",
"@	c #EFEFEF",
"#	c #646464",
"$	c #DCDCDC",
"%	c #ECECEC",
"&	c #3F3F3F",
"*	c #1A1A1A",
"=	c #8C8C8C",
"-	c #FCFCFC",
";	c #4D4D4D",
">	c #929292",
",	c #D5D5D5",
"'	c #B8B8B8",
")	c #999999",
"!	c #767676",
"~	c #FBFBFB",
"{	c #404040",
"]	c #1E1E1E",
"^	c #B4B4B4",
"/	c #E9E9E9",
"(	c #242424",
"_	c #343434",
":	c #F4F4F4",
"<	c #2D2D2D",
"[	c #1F1F1F",
"}	c #565656",
"|	c #B0B0B0",
"1	c #353535",
"2	c #2C2C2C",
"3	c #939393",
"4	c #E3E3E3",
".............",
".+++++++++++.",
".+++++++@#$+.",
".++++++%&*=+.",
".+++++-;*>++.",
".+,'++)*!+++.",
".~{]^/(_:+++.",
".+,<[}*|++++.",
".++,<*1~++++.",
".+++,23+++++.",
".++++,4+++++.",
".+++++++++++.",
"............."};
