/* XPM */
static char * shade_toggled_inactive_xpm[] = {
"12 12 10 1",
" 	c None",
".	c #928F8B",
"+	c #FFFFFF",
"@	c #6D6C6C",
"#	c #FEFDFD",
"$	c #F9F8F8",
"%	c #FAF9F9",
"&	c #FBFAFA",
"*	c #FCFBFB",
"=	c #FDFDFD",
"............",
".++++++++++.",
".++++++++++.",
".++@@@@@@++.",
".++@@@@@@++.",
".##########.",
".$$$@@@@$$$.",
".%%%%@@%%%%.",
".&&&&&&&&&&.",
".**********.",
".==========.",
"............"};
