/* XPM */
static char * stick_active_xpm[] = {
"12 12 13 1",
" 	c None",
".	c #49678B",
"+	c #ADC7E9",
"@	c #A7C3E7",
"#	c #A1BFE5",
"$	c #F4F5F6",
"%	c #9BBAE2",
"&	c #90B2DE",
"*	c #86ABD9",
"=	c #84AAD8",
"-	c #82A8D6",
";	c #7FA6D5",
">	c #7CA4D3",
"............",
".++++++++++.",
".@@@@@@@@@@.",
".##$$##$$##.",
".%%$$%%$$%%.",
".&&&&&&&&&&.",
".**********.",
".==$$==$$==.",
".--$$--$$--.",
".;;;;;;;;;;.",
".>>>>>>>>>>.",
"............"};
