/* XPM */
static char * toolbar_iconbar_unfocus_xpm[] = {
"1 20 15 1",
" 	c None",
".	c #FEFEFE",
"+	c #FDFDFD",
"@	c #FCFCFC",
"#	c #FBFBFB",
"$	c #F5F5F4",
"%	c #F3F3F2",
"&	c #F2F2F1",
"*	c #F1F0EF",
"=	c #EFEFEE",
"-	c #EEEDEC",
";	c #ECECEB",
">	c #EBEAE9",
",	c #EAE9E8",
"'	c #E8E7E6",
".",
".",
".",
"+",
"+",
"@",
"@",
"@",
"#",
"#",
"$",
"%",
"&",
"*",
"=",
"-",
";",
">",
",",
"'"};
