/* XPM */
static char * unselected_xpm[] = {
"13 13 3 1",
" 	c None",
".	c #797979",
"+	c #FFFFFF",
".............",
".+++++++++++.",
".+++++++++++.",
".+++++++++++.",
".+++++++++++.",
".+++++++++++.",
".+++++++++++.",
".+++++++++++.",
".+++++++++++.",
".+++++++++++.",
".+++++++++++.",
".+++++++++++.",
"............."};
