/* XPM */
static char * unselected_active_xpm[] = {
"13 13 3 1",
" 	c None",
".	c #4B6E99",
"+	c #C9DAEF",
".............",
".+++++++++++.",
".+++++++++++.",
".+++++++++++.",
".+++++++++++.",
".+++++++++++.",
".+++++++++++.",
".+++++++++++.",
".+++++++++++.",
".+++++++++++.",
".+++++++++++.",
".+++++++++++.",
"............."};
